External Loads File
version=1
nRows=38
nColumns=13
Range=5.000000e-03-10 seconds
endheader
time 	forceRightX 	forceRightY 	forceRightZ 	pointRightX 	pointRightY 	pointRightZ 	forceLeftX 	forceLeftY 	forceLeftZ 	pointLeftX 	pointLeftY 	pointLeftZ 		
2.505000 -2.803038 -101.162678 -0.000000 0.140254 0.366327 -0.165540 -13.630442 1070.487041 -0.000000 0.405205 0.240979 -0.412368
2.510000 -4.950727 -99.813349 -0.000000 0.144170 0.373591 -0.165629 -12.333773 1090.603480 -0.000000 0.402125 0.233164 -0.412261
2.515000 -7.831865 -99.264643 -0.000000 0.148486 0.380807 -0.165680 -9.686679 1112.651687 -0.000000 0.398666 0.225361 -0.412178
2.520000 -11.470643 -99.423207 -0.000000 0.153113 0.387844 -0.165710 -6.132998 1136.159073 -0.000000 0.394864 0.217719 -0.412067
2.525000 -15.874496 -100.058521 -0.000000 0.158112 0.394664 -0.165832 -1.416161 1160.453022 -0.000000 0.390741 0.210362 -0.411962
2.530000 -21.052329 -100.843977 -0.000000 0.163389 0.401403 -0.165927 6.031922 1184.629744 -0.000000 0.386264 0.203089 -0.411917
2.535000 -26.703262 -101.490607 -0.000000 0.168981 0.407840 -0.166074 15.513327 1207.537373 -0.000000 0.381469 0.196105 -0.411818
2.540000 -32.544821 -101.768683 -0.000000 0.174862 0.414041 -0.166198 27.370941 1227.874754 -0.000000 0.376373 0.189478 -0.411777
2.545000 -38.317495 -101.527045 -0.000000 0.180922 0.420179 -0.166449 42.287094 1244.307554 -0.000000 0.371048 0.183002 -0.411728
2.550000 -43.931309 -100.638569 -0.000000 0.188203 0.426039 -0.166409 62.457184 1255.411724 -0.000000 0.365432 0.176913 -0.411631
2.555000 -48.591333 -99.399306 -0.000000 0.194192 0.431820 -0.167076 80.216779 1260.244617 -0.000000 0.359629 0.171025 -0.411517
2.560000 -52.623371 -97.732799 -0.000000 0.200666 0.437590 -0.167341 100.544952 1257.397032 -0.000000 0.353601 0.165470 -0.411441
2.565000 -55.850574 -95.828114 -0.000000 0.207579 0.442558 -0.167693 120.917441 1246.070952 -0.000000 0.347445 0.160237 -0.411319
2.570000 -58.335838 -93.747020 -0.000000 0.214596 0.447477 -0.168115 140.743991 1225.679112 -0.000000 0.341134 0.155551 -0.411217
2.575000 -60.196463 -91.479005 -0.000000 0.221809 0.452150 -0.168482 159.267638 1196.001597 -0.000000 0.334819 0.151054 -0.411155
2.580000 -61.546700 -88.985825 -0.000000 0.229084 0.456474 -0.168787 175.352554 1157.257487 -0.000000 0.328349 0.146947 -0.411165
2.585000 -62.531453 -86.187024 -0.000000 0.236625 0.460415 -0.169079 188.763937 1109.946621 -0.000000 0.321872 0.143144 -0.411012
2.590000 -63.145965 -83.104188 -0.000000 0.244165 0.464164 -0.169393 198.342110 1055.110502 -0.000000 0.315380 0.139708 -0.410849
2.595000 -63.404448 -79.770448 -0.000000 0.251768 0.467454 -0.169684 203.934776 993.912398 -0.000000 0.308859 0.136674 -0.410718
2.600000 -63.311570 -76.227335 -0.000000 0.259339 0.470437 -0.170010 205.454078 927.635934 -0.000000 0.302307 0.134104 -0.410540
2.605000 -62.921824 -72.411767 -0.000000 0.267042 0.473052 -0.170307 203.492369 857.472269 -0.000000 0.295784 0.131788 -0.410428
2.610000 -62.255006 -68.188194 -0.000000 0.274800 0.475196 -0.170640 198.454162 784.588739 -0.000000 0.289181 0.129781 -0.410306
2.615000 -61.274249 -63.388863 -0.000000 0.282422 0.476964 -0.170664 190.340513 710.082275 -0.000000 0.282544 0.128217 -0.410260
2.620000 -60.013291 -57.713161 -0.000000 0.289979 0.478249 -0.170633 180.115660 634.597908 -0.000000 0.275854 0.126986 -0.410096
2.625000 -58.489297 -50.783678 -0.000000 0.297595 0.479082 -0.170706 168.697659 558.654239 -0.000000 0.269093 0.126183 -0.410197
2.630000 -56.692494 -42.119735 -0.000000 0.305427 0.479458 -0.170809 156.969037 482.799330 -0.000000 0.262217 0.125946 -0.410371
2.635000 -54.471239 -31.282143 -0.000000 0.312728 0.479404 -0.170718 144.517233 408.138748 -0.000000 0.255175 0.126249 -0.410647
2.640000 -51.819580 -17.464273 -0.000000 0.320425 0.478932 -0.170582 133.028093 335.209739 -0.000000 0.247974 0.127114 -0.410998
2.645000 -48.543225 -0.026238 -0.000000 0.327668 0.478049 -0.170559 122.135220 265.354211 -0.000000 0.240497 0.128582 -0.411354
2.650000 -44.499341 21.876232 -0.000000 0.334844 0.476680 -0.170698 112.560906 199.481591 -0.000000 0.232698 0.130426 -0.411377
2.655000 -39.534306 48.938501 -0.000000 0.341680 0.474875 -0.170617 104.304842 138.494690 -0.000000 0.224658 0.132892 -0.411109
2.660000 -33.612889 81.719927 -0.000000 0.348253 0.472574 -0.170369 97.345324 82.794272 -0.000000 0.216816 0.135845 -0.411012
2.665000 -26.707771 120.597604 -0.000000 0.354443 0.469984 -0.170046 91.644459 32.153974 -0.000000 0.208886 0.139363 -0.410920
2.670000 -18.853028 165.539627 -0.000000 0.360374 0.466808 -0.169557 86.796650 -13.814142 -0.000000 0.201110 0.143391 -0.410798
2.675000 -10.184414 215.970893 -0.000000 0.366207 0.463223 -0.169115 82.129829 -55.350763 -0.000000 0.193584 0.147840 -0.410875
2.680000 -1.071536 270.722894 -0.000000 0.371830 0.459306 -0.168998 76.804168 -92.322954 -0.000000 0.186440 0.152831 -0.411033
2.685000 7.477022 328.136559 -0.000000 0.376996 0.455022 -0.168658 70.133955 -124.171281 -0.000000 0.180022 0.158133 -0.410989
2.690000 14.525825 386.273895 -0.000000 0.381923 0.450295 -0.168354 61.601360 -150.275019 -0.000000 0.174295 0.163271 -0.410865
